<svg xmlns="http://www.w3.org/2000/svg" width="512" height="512"
    style="shape-rendering:geometricPrecision;text-rendering:geometricPrecision;image-rendering:optimizeQuality;fill-rule:evenodd;clip-rule:evenodd">
    <path fill="#0e5cc5"
        d="M511.5 79.5v352c-6.94 35.448-27.607 58.948-62 70.5a106.075 106.075 0 0 1-22 3c-114.667.667-229.333.667-344 0-37.183-1.83-63.35-19.663-78.5-53.5a226.023 226.023 0 0 1-5.5-20v-352C6.44 44.053 27.107 20.552 61.5 9a106.091 106.091 0 0 1 22-3c114.667-.667 229.333-.667 344 0 36.167 1.82 62 18.987 77.5 51.5 2.812 7.27 4.979 14.604 6.5 22Z"
        style="opacity:.998" />
    <path fill="#fbfcfe"
        d="M92.5 44.5c108.667-.167 217.334 0 326 .5 28.316 4.651 46.149 20.818 53.5 48.5.667 107.667.667 215.333 0 323-6.908 28.24-24.742 44.74-53.5 49.5-108.667.667-217.333.667-326 0-28.702-4.701-46.535-21.201-53.5-49.5a26081.196 26081.196 0 0 1 0-323c7.558-27.731 25.391-44.065 53.5-49Z"
        style="opacity:1" />
    <path fill="#0c5cc5"
        d="M92.5 60.5a51839.6 51839.6 0 0 1 322 .5c24.13 2.464 38.297 15.63 42.5 39.5.667 103 .667 206 0 309-3.78 24.447-17.946 37.947-42.5 40.5-107.333.667-214.667.667-322 0-22.401-4.402-35.235-17.902-38.5-40.5-.667-103-.667-206 0-309 3.87-22.035 16.703-35.369 38.5-40Z"
        style="opacity:1" />
    <path fill="#fefefe"
        d="M170.5 144.5c35.668-.167 71.335 0 107 .5 31.668 4.032 53.834 20.532 66.5 49.5 9.734 30.348 3.568 56.848-18.5 79.5-17.534 13.845-37.534 20.511-60 20-12.662.5-25.329.667-38 .5v72h-57v-222Z"
        style="opacity:1" />
    <path fill="#0c5cc5"
        d="M228.5 190.5a338.578 338.578 0 0 1 43 1.5c12.726 5.601 18.726 15.434 18 29.5-.15 16.484-8.483 25.151-25 26h-36v-57Z"
        style="opacity:1" />
    <path fill="#6f9edd" d="M228.5 190.5v57h36a342.787 342.787 0 0 1-37 1 841.82 841.82 0 0 1 1-58Z"
        style="opacity:1" />
</svg>